<mxfile host="app.diagrams.net" modified="2022-05-20T23:17:03.596Z" agent="5.0 (Windows NT 10.0; Win64; x64) AppleWebKit/537.36 (KHTML, like Gecko) Chrome/101.0.4951.67 Safari/537.36" etag="yGUb-Hw0godCda3jMro2" version="18.1.1" type="github">
  <diagram id="_VaPhBaYmvQU5ODUvyA-" name="Page-1">
    <mxGraphModel dx="1422" dy="794" grid="1" gridSize="10" guides="1" tooltips="1" connect="1" arrows="1" fold="1" page="1" pageScale="1" pageWidth="827" pageHeight="1169" math="0" shadow="0">
      <root>
        <mxCell id="0" />
        <mxCell id="1" parent="0" />
        <mxCell id="q4Iqu_WcQ6OzkBqKhH51-7" style="edgeStyle=orthogonalEdgeStyle;rounded=0;orthogonalLoop=1;jettySize=auto;html=1;entryX=0.5;entryY=0;entryDx=0;entryDy=0;" edge="1" parent="1" source="q4Iqu_WcQ6OzkBqKhH51-1" target="q4Iqu_WcQ6OzkBqKhH51-2">
          <mxGeometry relative="1" as="geometry" />
        </mxCell>
        <mxCell id="q4Iqu_WcQ6OzkBqKhH51-8" style="edgeStyle=orthogonalEdgeStyle;rounded=0;orthogonalLoop=1;jettySize=auto;html=1;entryX=0.367;entryY=0.033;entryDx=0;entryDy=0;entryPerimeter=0;exitX=0.5;exitY=1;exitDx=0;exitDy=0;" edge="1" parent="1" source="q4Iqu_WcQ6OzkBqKhH51-1" target="q4Iqu_WcQ6OzkBqKhH51-3">
          <mxGeometry relative="1" as="geometry">
            <mxPoint x="450" y="140" as="sourcePoint" />
            <Array as="points">
              <mxPoint x="370" y="120" />
              <mxPoint x="370" y="140" />
              <mxPoint x="294" y="140" />
            </Array>
          </mxGeometry>
        </mxCell>
        <mxCell id="q4Iqu_WcQ6OzkBqKhH51-9" style="edgeStyle=orthogonalEdgeStyle;rounded=0;orthogonalLoop=1;jettySize=auto;html=1;exitX=1;exitY=0.5;exitDx=0;exitDy=0;" edge="1" parent="1" source="q4Iqu_WcQ6OzkBqKhH51-1" target="q4Iqu_WcQ6OzkBqKhH51-5">
          <mxGeometry relative="1" as="geometry" />
        </mxCell>
        <mxCell id="q4Iqu_WcQ6OzkBqKhH51-10" style="edgeStyle=orthogonalEdgeStyle;rounded=0;orthogonalLoop=1;jettySize=auto;html=1;" edge="1" parent="1" source="q4Iqu_WcQ6OzkBqKhH51-1" target="q4Iqu_WcQ6OzkBqKhH51-4">
          <mxGeometry relative="1" as="geometry">
            <Array as="points">
              <mxPoint x="365" y="140" />
              <mxPoint x="450" y="140" />
            </Array>
          </mxGeometry>
        </mxCell>
        <mxCell id="q4Iqu_WcQ6OzkBqKhH51-1" value="&lt;p style=&quot;line-height: 1.7;&quot;&gt;HOME&lt;/p&gt;" style="rounded=0;whiteSpace=wrap;html=1;" vertex="1" parent="1">
          <mxGeometry x="280" y="80" width="170" height="40" as="geometry" />
        </mxCell>
        <mxCell id="q4Iqu_WcQ6OzkBqKhH51-2" value="ALUNAS" style="rounded=0;whiteSpace=wrap;html=1;" vertex="1" parent="1">
          <mxGeometry x="110" y="170" width="120" height="60" as="geometry" />
        </mxCell>
        <mxCell id="q4Iqu_WcQ6OzkBqKhH51-3" value="CHAMADA" style="rounded=0;whiteSpace=wrap;html=1;" vertex="1" parent="1">
          <mxGeometry x="250" y="170" width="120" height="60" as="geometry" />
        </mxCell>
        <mxCell id="q4Iqu_WcQ6OzkBqKhH51-4" value="CONFIGURAÇÕES" style="rounded=0;whiteSpace=wrap;html=1;" vertex="1" parent="1">
          <mxGeometry x="390" y="170" width="120" height="60" as="geometry" />
        </mxCell>
        <mxCell id="q4Iqu_WcQ6OzkBqKhH51-5" value="SUPORTE" style="rounded=0;whiteSpace=wrap;html=1;" vertex="1" parent="1">
          <mxGeometry x="530" y="170" width="120" height="60" as="geometry" />
        </mxCell>
        <mxCell id="q4Iqu_WcQ6OzkBqKhH51-18" value="Nome&lt;br&gt;Data de Nascimento&lt;br&gt;Escola&lt;br&gt;Endereço&lt;br&gt;Nome Responsavel&lt;br&gt;Telefone&lt;br&gt;Histórico escolar&lt;br&gt;faltas&lt;br&gt;&lt;div style=&quot;text-align: justify;&quot;&gt;&lt;/div&gt;" style="rounded=0;whiteSpace=wrap;html=1;align=left;horizontal=0;direction=west;rotation=90;" vertex="1" parent="1">
          <mxGeometry x="110" y="240" width="120" height="120" as="geometry" />
        </mxCell>
        <mxCell id="q4Iqu_WcQ6OzkBqKhH51-19" value="Nome da aluna&lt;br&gt;Data atual&lt;br&gt;Checkbox" style="rounded=0;whiteSpace=wrap;html=1;align=left;" vertex="1" parent="1">
          <mxGeometry x="250" y="240" width="120" height="120" as="geometry" />
        </mxCell>
        <mxCell id="q4Iqu_WcQ6OzkBqKhH51-20" value="Alterar senha&lt;br&gt;Alterar email" style="rounded=0;whiteSpace=wrap;html=1;align=left;" vertex="1" parent="1">
          <mxGeometry x="390" y="240" width="120" height="120" as="geometry" />
        </mxCell>
        <mxCell id="q4Iqu_WcQ6OzkBqKhH51-21" value="Telefone suporte&lt;br&gt;Email suporte" style="rounded=0;whiteSpace=wrap;html=1;align=left;" vertex="1" parent="1">
          <mxGeometry x="530" y="240" width="120" height="120" as="geometry" />
        </mxCell>
      </root>
    </mxGraphModel>
  </diagram>
</mxfile>
